# This file uses centimeters as units for non-parametric coordinates.

mtllib rock_low.mtl
g default
v -0.586444 -0.439636 0.850630
v 0.522355 -0.175844 -0.907195
v -0.538724 -0.981975 0.858707
v 0.437354 -1.804713 -0.367666
v -0.853253 -0.699077 -0.312659
v -0.979913 0.447151 -0.029150
v 0.669051 -1.743577 -0.282318
v 0.711717 0.575442 0.310365
v -0.340735 0.008513 -0.753460
v 0.022289 1.278159 -0.171133
v -0.597016 -1.791501 0.036502
v 0.347368 -1.167661 -0.872956
v 0.087359 -1.554070 -0.639243
v 0.558399 0.483264 -0.573176
v 0.863483 0.429437 -0.066332
v -0.664711 0.583079 0.388729
v 0.147810 -0.848541 0.639093
v -0.979754 0.380246 -0.292834
v -0.172823 -0.995262 0.622989
v -0.811355 -0.436351 0.351023
v -0.356433 -1.419598 0.639702
v -0.082123 1.152743 0.470667
v -0.814843 -1.263265 -0.395745
v 0.551965 0.245110 0.694076
v -0.479938 -1.808409 -0.334054
v -0.094287 -0.396610 0.815126
v 0.102312 -1.737359 -0.335139
v -0.140182 1.296172 0.040619
v -0.225956 -0.853411 0.884994
v 0.674534 -1.041823 -0.344765
v 0.070204 0.255938 0.717718
v -0.482380 -1.756329 0.250402
v -0.164071 0.798547 0.674218
v 0.581029 -1.508982 0.225716
v -0.381773 0.653192 -0.737002
v 0.484840 -1.699412 0.176052
v -0.944370 -0.249340 -0.144928
v 0.412198 0.744667 -0.422563
v -0.680169 -0.975258 0.327546
v -0.273840 1.182482 -0.260218
v 0.576444 -0.977797 0.483309
v -0.865780 -1.452829 -0.141907
v 0.146126 0.480735 -0.554166
v -0.587592 0.364390 0.697940
v 0.288006 -0.120792 -0.790818
v 0.307246 -0.008203 0.793483
v -0.734462 -1.241909 0.590315
v 0.588094 -1.409041 -0.624793
v 0.424215 0.871952 -0.386745
v 0.367119 -0.839284 0.642426
v 0.003530 -0.747916 -0.793683
v -0.653765 -1.389185 0.784311
v 0.231117 0.701134 0.634520
v 0.181829 0.167335 -0.838141
v 0.418367 -1.407552 0.426266
v -0.715290 -0.691092 0.726210
v -0.374861 -1.051807 -0.608804
v -0.415978 -0.135207 0.803988
v 0.815639 -0.092812 -0.224457
v -0.466572 1.053319 -0.024108
v -0.712885 -1.686262 0.137297
v 0.630831 -0.500876 -0.408626
v -0.036507 -1.684407 -0.084662
v -0.418767 1.073372 -0.422957
v -0.256194 -1.716852 -0.531654
v 0.546677 -0.524563 0.542452
v -0.475473 -0.017863 0.727785
v 0.472998 -1.717534 -0.603716
v 0.706042 -0.150416 0.191678
v -0.663477 -1.561638 0.560285
v -0.612487 -0.647687 -0.456061
v 0.793034 0.540031 -0.195922
v -0.813646 -0.000622 0.528417
v -0.257264 -0.358103 -0.799666
v 0.182988 -1.081068 0.510468
v 0.575926 -1.147412 -0.609177
v 0.657244 0.511303 0.504018
v -0.881100 -0.052283 0.295657
v -0.357839 -0.580151 0.888635
v 0.136539 -1.706067 0.333991
v -0.264275 1.249472 0.194941
v 0.277221 -1.416542 0.412912
v -0.338001 -0.181114 0.910617
v 0.609457 0.259068 -0.624713
v -0.018770 -1.355215 -0.756427
v -0.731676 0.599698 -0.656565
v 0.046090 1.185793 0.268093
v -0.374462 -1.739643 0.538392
v 0.679948 -0.928880 0.128025
v -0.699812 -1.024426 0.693253
v 0.268990 0.922248 0.307510
v -0.681127 -0.253092 0.736405
v -0.815505 0.073029 -0.549906
v -0.518264 -1.560162 -0.527909
v -0.126771 0.345817 -0.794030
v 0.645728 0.614326 0.062536
v -0.469735 -1.553975 0.690098
v 0.710315 -1.598353 -0.213976
v -0.499297 0.909929 0.216510
v -0.150098 -0.219161 0.911580
vt 0.178410 0.643310
vt 0.074350 0.583210
vt 0.160780 0.548200
vt 0.565160 0.459200
vt 0.683370 0.375670
vt 0.637490 0.545640
vt 0.746640 0.526790
vt 0.791460 0.597220
vt 0.710480 0.638340
vt 0.608470 0.810730
vt 0.702890 0.774150
vt 0.530380 0.920520
vt 0.246130 0.418800
vt 0.247920 0.344030
vt 0.314870 0.450950
vt 0.487960 0.195160
vt 0.329530 0.203420
vt 0.327200 0.130590
vt 0.512520 0.529850
vt 0.553650 0.558640
vt 0.447480 0.702350
vt 0.509570 0.669610
vt 0.451400 0.753070
vt 0.092410 0.794370
vt 0.001950 0.478220
vt 0.117510 0.717680
vt 0.193430 0.259940
vt 0.206930 0.159610
vt 0.271870 0.237920
vt 0.470500 0.858250
vt 0.367880 0.776770
vt 0.275730 0.689940
vt 0.374230 0.690440
vt 0.212690 0.527650
vt 0.258040 0.674630
vt 0.270730 0.609020
vt 0.396390 0.648420
vt 0.302600 0.547660
vt 0.365730 0.554670
vt 0.434220 0.544130
vt 0.465340 0.655240
vt 0.555520 0.126920
vt 0.291760 0.074800
vt 0.344970 0.001950
vt 0.750610 0.375560
vt 0.063170 0.428910
vt 0.147970 0.397830
vt 0.171550 0.306750
vt 0.243930 0.307190
vt 0.350500 0.365330
vt 0.432870 0.402050
vt 0.521800 0.298520
vt 0.269180 0.771830
vt 0.298650 0.808420
vt 0.205640 0.828950
vt 0.207410 0.766640
vt 0.221740 0.742430
vt 0.569610 0.648410
vt 0.130350 0.045290
vt 0.407350 0.619240
vt 0.341370 0.489080
vt 0.462190 0.476940
vt 0.725240 0.213610
vt 0.547940 0.035560
vt 0.690630 0.876430
vt 0.657800 0.591710
vt 0.692970 0.621480
vt 0.476960 0.224720
vt 0.508110 0.762020
vt 0.652000 0.710610
vt 0.511530 0.811060
vt 0.647240 0.692670
vt 0.468030 0.328750
vt 0.403870 0.260850
vt 0.390540 0.856650
vt 0.330870 0.905570
vt 0.332690 0.836290
vt 0.430770 0.803890
vt 0.384800 0.299790
vt 0.699160 0.719890
vt 0.645800 0.736460
vt 0.331130 0.279770
vt 0.415870 0.693640
vt 0.412560 0.740060
vt 0.117670 0.274160
vt 0.611940 0.783490
vt 0.576380 0.172930
vt 0.508920 0.158560
vt 0.158030 0.155300
vt 0.144680 0.262670
vt 0.505380 0.399010
vt 0.207490 0.661500
vt 0.525120 0.240950
vt 0.596500 0.222220
vt 0.423800 0.936300
vt 0.514390 0.998040
vt 0.268990 0.942030
vt 0.238320 0.558030
vt 0.606530 0.679730
vt 0.651680 0.229120
vt 0.112070 0.368390
vt 0.677350 0.302600
vt 0.233720 0.089650
vt 0.665210 0.484480
vt 0.021310 0.205650
vn 0.886215 0.059609 -0.459423
vn 0.916393 -0.033982 -0.398836
vn 0.635718 0.069589 -0.768779
vn -0.992102 -0.116167 0.047317
vn -0.953159 -0.083823 0.290621
vn -0.965963 -0.118468 0.229958
vn -0.927858 -0.087338 0.362563
vn -0.036486 -0.221851 0.974398
vn -0.443481 0.056374 0.894509
vn 0.353728 -0.197195 0.914325
vn 0.346958 -0.326596 0.879179
vn 0.237141 -0.287858 0.927848
vn -0.154175 -0.011481 -0.987977
vn -0.285783 -0.212681 -0.934395
vn -0.357197 -0.055834 -0.932359
vn -0.037699 -0.994614 0.096545
vn 0.084801 -0.991209 0.101556
vn 0.213978 -0.895863 0.389415
vn -0.951339 0.113006 -0.286679
vn -0.892131 0.428142 0.144211
vn -0.550855 0.757571 0.350205
vn -0.681078 0.556129 0.476291
vn -0.135880 0.690065 0.710878
vn 0.983244 -0.122438 0.135058
vn 0.992289 -0.064830 -0.105640
vn 0.974395 -0.096734 -0.202969
vn -0.030464 -0.999529 -0.003782
vn 0.307411 -0.876216 0.371137
vn -0.042067 -0.995789 -0.081454
vn 0.302802 0.001106 0.953053
vn 0.674929 0.713367 0.188622
vn 0.717607 0.680424 -0.148540
vn 0.487145 0.799467 -0.351486
vn -0.188263 -0.031754 -0.981605
vn 0.263512 0.511743 -0.817729
vn 0.182591 0.546842 -0.817083
vn -0.041625 0.732721 -0.679255
vn 0.122304 0.331066 -0.935648
vn 0.033977 0.371828 -0.927680
vn -0.689038 0.424576 -0.587335
vn -0.754672 0.655458 0.029070
vn 0.387856 -0.226522 0.893452
vn 0.234600 -0.246998 0.940189
vn 0.232748 -0.265663 0.935549
vn -0.950351 0.018181 0.310650
vn 0.880894 -0.048355 -0.470837
vn 0.209784 -0.156637 -0.965119
vn 0.255286 -0.641323 -0.723556
vn -0.069445 -0.634687 -0.769642
vn -0.488690 -0.066928 -0.869887
vn -0.532017 -0.103960 -0.840327
vn -0.964460 -0.234002 0.122719
vn 0.632520 0.774014 0.028656
vn 0.891535 0.349981 0.287539
vn 0.927730 -0.069911 0.366647
vn 0.996976 0.054571 0.055322
vn 0.755320 0.607538 -0.245742
vn -0.747181 0.487499 0.451735
vn 0.822576 -0.164571 0.544321
vn -0.523944 0.744678 -0.413446
vn -0.402407 -0.069100 -0.912849
vn -0.642451 -0.125478 -0.755984
vn 0.379476 -0.381629 0.842827
vn -0.864435 0.124747 0.487022
vn -0.789112 0.076015 0.609527
vn -0.302699 -0.952529 0.032578
vn -0.250432 0.431326 0.866742
vn -0.291635 0.355448 0.888035
vn 0.044390 0.188024 0.981161
vn -0.248872 0.167569 0.953931
vn -0.735478 -0.117291 -0.667320
vn -0.281224 -0.933709 -0.221587
vn 0.618370 0.075442 0.782258
vn 0.802995 -0.069087 0.591968
vn 0.808447 0.269446 0.523271
vn 0.300176 0.399430 0.866227
vn -0.494757 -0.276997 -0.823704
vn -0.011907 -0.010571 0.999873
vn -0.235834 0.331667 0.913444
vn -0.060590 -0.732540 -0.678022
vn -0.141181 0.989726 0.022597
vn 0.594297 0.764294 0.250330
vn 0.996959 -0.049847 0.059898
vn 0.191330 0.042112 0.980622
vn 0.022522 -0.640174 0.767900
vn 0.072480 -0.785918 0.614068
vn 0.918339 -0.195741 0.344004
vn 0.642554 -0.766099 -0.014722
vn -0.813157 -0.069897 -0.577832
vn 0.391218 0.533186 -0.750107
vn -0.893244 -0.351514 0.280273
vn -0.905083 -0.370818 0.208130
vn 0.289385 -0.245998 0.925063
vn 0.079725 0.286334 -0.954807
vn -0.487510 0.322189 0.811497
vn -0.247857 -0.333058 0.909747
vn 0.817300 -0.152587 -0.555642
vn -0.994766 -0.081494 -0.061642
vn 0.392464 -0.363774 0.844773
vn -0.980325 -0.138132 0.141004
s 1
g rock:Group43834
usemtl rock:defaultMat
f 84/1/1 62/2/2 2/3/3
f 37/4/4 39/5/5 78/6/6
f 56/7/7 3/8/8 1/9/9
f 26/10/10 29/11/11 17/12/12
f 51/13/13 85/14/14 74/15/15
f 32/16/16 63/17/17 80/18/18
f 18/19/19 37/4/4 6/20/20
f 81/21/21 99/22/22 22/23/23
f 89/24/24 30/25/25 59/26/26
f 4/27/27 36/28/28 27/29/29
f 26/10/10 17/12/12 46/30/30
f 91/31/31 49/32/32 10/33/33
f 45/34/34 51/13/13 74/15/15
f 38/35/35 43/36/36 40/37/37
f 95/38/38 35/39/39 40/37/37
f 86/40/40 6/20/20 60/41/41
f 21/42/42 82/43/43 75/44/44
f 56/7/7 90/45/45 3/8/8
f 2/3/3 76/46/46 12/47/47
f 12/47/47 68/48/48 13/49/49
f 74/15/15 57/50/50 71/51/51
f 37/4/4 42/52/52 39/5/5
f 91/31/31 96/53/53 49/32/32
f 8/54/54 69/55/55 15/56/56
f 96/53/53 72/57/57 38/35/35
f 59/26/26 62/2/2 84/1/1
f 60/41/41 6/20/20 16/58/58
f 6/20/20 37/4/4 78/6/6
f 75/44/44 82/43/43 41/59/59
f 69/55/55 89/24/24 15/56/56
f 35/39/39 86/40/40 64/60/60
f 9/61/61 71/51/51 93/62/62
f 3/63/8 21/42/42 19/64/63
f 29/11/11 19/65/63 17/12/12
f 73/66/64 6/20/20 78/6/6
f 56/7/7 1/9/9 92/67/65
f 56/7/7 39/5/5 90/45/45
f 11/68/66 63/17/17 32/16/16
f 33/69/67 58/70/68 31/71/69
f 67/72/70 58/70/68 33/69/67
f 71/51/51 57/50/50 23/73/71
f 11/68/66 42/52/52 25/74/72
f 24/75/73 66/76/74 77/77/75
f 22/23/23 53/78/76 77/77/75
f 57/50/50 94/79/77 23/73/71
f 68/48/48 27/29/29 13/49/49
f 1/9/9 3/8/8 79/80/78
f 58/70/68 83/81/79 31/71/69
f 13/49/49 27/29/29 65/82/80
f 25/74/72 27/29/29 11/68/66
f 28/83/81 87/84/82 10/33/33
f 64/60/60 86/40/40 60/41/41
f 29/11/11 3/8/8 19/65/63
f 3/8/8 29/11/11 79/80/78
f 30/25/25 98/85/83 76/46/46
f 62/2/2 76/46/46 2/3/3
f 100/86/84 46/30/30 31/71/69
f 24/75/73 77/77/75 53/78/76
f 97/87/85 11/68/66 32/16/16
f 21/42/42 88/88/86 82/43/43
f 22/23/23 99/22/22 33/69/67
f 22/23/23 33/69/67 53/78/76
f 34/89/87 98/85/83 30/25/25
f 7/90/88 36/28/28 4/27/27
f 95/38/38 9/61/61 35/39/39
f 35/39/39 9/61/61 93/62/62
f 34/89/87 36/28/28 7/90/88
f 88/88/86 80/18/18 82/43/43
f 5/91/89 42/52/52 37/4/4
f 37/4/4 93/62/62 5/91/89
f 38/35/35 14/92/90 43/36/36
f 38/35/35 72/57/57 14/92/90
f 39/5/5 61/93/91 70/94/92
f 42/52/52 61/93/91 39/5/5
f 10/33/33 38/35/35 40/37/37
f 40/37/37 28/83/81 10/33/33
f 50/95/93 75/96/44 41/97/59
f 46/30/30 50/95/93 66/76/74
f 23/73/71 25/74/72 42/52/52
f 5/91/89 23/73/71 42/52/52
f 45/34/34 2/3/3 51/13/13
f 2/3/3 54/98/94 14/92/90
f 99/22/22 44/99/95 33/69/67
f 6/20/20 73/66/64 16/58/58
f 14/92/90 54/98/94 43/36/36
f 40/37/37 43/36/36 95/38/38
f 46/30/30 66/76/74 24/75/73
f 53/78/76 46/30/30 24/75/73
f 3/63/8 52/100/96 21/42/42
f 70/94/92 61/93/91 97/87/85
f 12/47/47 48/101/97 68/48/48
f 48/101/97 98/85/83 68/48/48
f 10/33/33 49/32/32 38/35/35
f 49/32/32 96/53/53 38/35/35
f 17/12/12 75/96/44 50/95/93
f 46/30/30 17/12/12 50/95/93
f 51/13/13 2/3/3 12/47/47
f 51/13/13 12/47/47 85/14/14
f 90/45/45 52/100/96 3/63/8
f 39/5/5 70/94/92 47/102/98
f 53/78/76 33/69/67 31/71/69
f 31/71/69 46/30/30 53/78/76
f 2/3/3 45/34/34 54/98/94
f 54/98/94 45/34/34 74/15/15
f 55/103/99 36/28/28 34/89/87
f 41/59/59 55/103/99 34/89/87
f 20/104/100 56/7/7 92/67/65
f 20/104/100 39/5/5 56/7/7
f 57/50/50 85/14/14 94/79/77
f 74/15/15 85/14/14 57/50/50
f 92/67/65 1/9/9 58/70/68
f 58/70/68 1/9/9 83/81/79
f 15/56/56 59/26/26 84/1/1
f 15/56/56 89/24/24 59/26/26
f 81/21/21 60/41/41 99/22/22
f 28/83/81 40/37/37 60/41/41
f 11/68/66 97/87/85 61/93/91
f 61/93/91 42/52/52 11/68/66
f 30/25/25 76/46/46 62/2/2
f 59/26/26 30/25/25 62/2/2
f 11/68/66 27/29/29 63/17/17
f 36/28/28 63/17/17 27/29/29
f 40/37/37 35/39/39 64/60/60
f 40/37/37 64/60/60 60/41/41
f 65/82/80 27/29/29 25/74/72
f 94/79/77 25/74/72 23/73/71
f 66/76/74 50/95/93 41/97/59
f 41/97/59 89/24/24 69/55/55
f 33/69/67 44/99/95 67/72/70
f 16/58/58 73/66/64 44/99/95
f 68/48/48 4/27/27 27/29/29
f 7/90/88 4/27/27 68/48/48
f 66/76/74 41/97/59 69/55/55
f 77/77/75 66/76/74 69/55/55
f 47/102/98 70/94/92 52/100/96
f 70/94/92 97/87/85 52/100/96
f 71/51/51 23/73/71 5/91/89
f 93/62/62 71/51/51 5/91/89
f 15/56/56 84/1/1 72/57/57
f 96/53/53 15/56/56 72/57/57
f 73/66/64 20/104/100 92/67/65
f 44/99/95 73/66/64 92/67/65
f 95/38/38 74/15/15 9/61/61
f 9/61/61 74/15/15 71/51/51
f 19/65/63 75/96/44 17/12/12
f 19/64/63 21/42/42 75/44/44
f 76/46/46 48/101/97 12/47/47
f 76/46/46 98/85/83 48/101/97
f 91/31/31 77/77/75 8/54/54
f 8/54/54 77/77/75 69/55/55
f 78/6/6 39/5/5 20/104/100
f 78/6/6 20/104/100 73/66/64
f 79/80/78 29/11/11 26/10/10
f 100/86/84 26/10/10 46/30/30
f 80/18/18 63/17/17 36/28/28
f 55/103/99 80/18/18 36/28/28
f 28/83/81 81/21/21 22/23/23
f 28/83/81 60/41/41 81/21/21
f 80/18/18 55/103/99 82/43/43
f 41/59/59 82/43/43 55/103/99
f 1/9/9 79/80/78 83/81/79
f 100/86/84 79/80/78 26/10/10
f 72/57/57 84/1/1 14/92/90
f 84/1/1 2/3/3 14/92/90
f 12/47/47 13/49/49 85/14/14
f 85/14/14 13/49/49 65/82/80
f 86/40/40 18/19/19 6/20/20
f 37/4/4 18/19/19 93/62/62
f 28/83/81 22/23/23 87/84/82
f 22/23/23 77/77/75 91/31/31
f 88/88/86 32/16/16 80/18/18
f 97/87/85 32/16/16 88/88/86
f 89/105/24 41/59/59 34/89/87
f 89/105/24 34/89/87 30/25/25
f 39/5/5 47/102/98 90/45/45
f 90/45/45 47/102/98 52/100/96
f 87/84/82 91/31/31 10/33/33
f 22/23/23 91/31/31 87/84/82
f 44/99/95 92/67/65 67/72/70
f 67/72/70 92/67/65 58/70/68
f 35/39/39 93/62/62 86/40/40
f 18/19/19 86/40/40 93/62/62
f 94/79/77 65/82/80 25/74/72
f 85/14/14 65/82/80 94/79/77
f 95/38/38 54/98/94 74/15/15
f 43/36/36 54/98/94 95/38/38
f 96/53/53 8/54/54 15/56/56
f 91/31/31 8/54/54 96/53/53
f 21/42/42 97/87/85 88/88/86
f 52/100/96 97/87/85 21/42/42
f 34/89/87 7/90/88 98/85/83
f 98/85/83 7/90/88 68/48/48
f 99/22/22 60/41/41 16/58/58
f 99/22/22 16/58/58 44/99/95
f 83/81/79 100/86/84 31/71/69
f 79/80/78 100/86/84 83/81/79
